<?xml version="1.0" encoding="utf-8"?>
<!-- Generator: Adobe Illustrator 17.0.0, SVG Export Plug-In . SVG Version: 6.00 Build 0)  -->
<!DOCTYPE svg PUBLIC "-//W3C//DTD SVG 1.1//EN" "http://www.w3.org/Graphics/SVG/1.1/DTD/svg11.dtd">
<svg version="1.1" id="Layer_1" xmlns="http://www.w3.org/2000/svg" xmlns:xlink="http://www.w3.org/1999/xlink" x="0px" y="0px"
	 width="100px" height="100px" viewBox="0 0 100 100" enable-background="new 0 0 100 100" xml:space="preserve">
<g>
	<polygon fill-rule="evenodd" clip-rule="evenodd" fill="#EB2625" points="52.346,69.705 24.321,69.531 67.362,98.879 
		91.266,98.879 	"/>
	<rect x="9.856" y="44.682" fill-rule="evenodd" clip-rule="evenodd" fill="#F0494B" width="14.465" height="54.362"/>
	<path fill-rule="evenodd" clip-rule="evenodd" fill="#A31B1F" d="M47.868,1.947c21.055,0,38.123,17.068,38.123,38.123
		c0,21.055-17.068,38.123-38.123,38.123c-21.055,0-38.123-17.068-38.123-38.123C9.745,19.015,26.813,1.947,47.868,1.947
		L47.868,1.947z M47.868,16.58c-12.973,0-23.49,10.517-23.49,23.49c0,12.973,10.517,23.49,23.49,23.49
		c12.973,0,23.49-10.517,23.49-23.49C71.357,27.097,60.841,16.58,47.868,16.58z"/>
	<path fill-rule="evenodd" clip-rule="evenodd" fill="#F0494B" d="M47.535,1.166c21.055,0,38.123,17.068,38.123,38.123
		c0,21.055-17.068,38.123-38.123,38.123c-21.055,0-38.123-17.068-38.123-38.123C9.412,18.234,26.48,1.166,47.535,1.166L47.535,1.166
		z M47.535,15.799c-12.973,0-23.49,10.517-23.49,23.49c0,12.973,10.517,23.49,23.49,23.49c12.973,0,23.49-10.517,23.49-23.49
		C71.025,26.316,60.508,15.799,47.535,15.799z"/>
</g>
</svg>
